<svg xmlns="http://www.w3.org/2000/svg" viewBox="0 0 560 130" role="img" aria-label="Co-funded by the European Union">
<rect x="6" y="14" width="153" height="102" fill="#0a2f6e" stroke="rgba(255,255,255,.28)" stroke-width="2"/>
<path d="M82.50,25.33 L83.77,29.25 L87.89,29.25 L84.56,31.67 L85.83,35.58 L82.50,33.16 L79.17,35.58 L80.44,31.67 L77.11,29.25 L81.23,29.25 Z M99.50,29.89 L100.77,33.80 L104.89,33.80 L101.56,36.22 L102.83,40.14 L99.50,37.72 L96.17,40.14 L97.44,36.22 L94.11,33.80 L98.23,33.80 Z M111.94,42.33 L113.22,46.25 L117.33,46.25 L114.00,48.67 L115.28,52.58 L111.94,50.16 L108.61,52.58 L109.89,48.67 L106.56,46.25 L110.67,46.25 Z M116.50,59.33 L117.77,63.25 L121.89,63.25 L118.56,65.67 L119.83,69.58 L116.50,67.16 L113.17,69.58 L114.44,65.67 L111.11,63.25 L115.23,63.25 Z M111.94,76.33 L113.22,80.25 L117.33,80.25 L114.00,82.67 L115.28,86.58 L111.94,84.16 L108.61,86.58 L109.89,82.67 L106.56,80.25 L110.67,80.25 Z M99.50,88.78 L100.77,92.69 L104.89,92.69 L101.56,95.11 L102.83,99.03 L99.50,96.61 L96.17,99.03 L97.44,95.11 L94.11,92.69 L98.23,92.69 Z M82.50,93.33 L83.77,97.25 L87.89,97.25 L84.56,99.67 L85.83,103.58 L82.50,101.16 L79.17,103.58 L80.44,99.67 L77.11,97.25 L81.23,97.25 Z M65.50,88.78 L66.77,92.69 L70.89,92.69 L67.56,95.11 L68.83,99.03 L65.50,96.61 L62.17,99.03 L63.44,95.11 L60.11,92.69 L64.23,92.69 Z M53.06,76.33 L54.33,80.25 L58.44,80.25 L55.11,82.67 L56.39,86.58 L53.06,84.16 L49.72,86.58 L51.00,82.67 L47.67,80.25 L51.78,80.25 Z M48.50,59.33 L49.77,63.25 L53.89,63.25 L50.56,65.67 L51.83,69.58 L48.50,67.16 L45.17,69.58 L46.44,65.67 L43.11,63.25 L47.23,63.25 Z M53.06,42.33 L54.33,46.25 L58.44,46.25 L55.11,48.67 L56.39,52.58 L53.06,50.16 L49.72,52.58 L51.00,48.67 L47.67,46.25 L51.78,46.25 Z M65.50,29.89 L66.77,33.80 L70.89,33.80 L67.56,36.22 L68.83,40.14 L65.50,37.72 L62.17,40.14 L63.44,36.22 L60.11,33.80 L64.23,33.80 Z" fill="#f5c518"/>
<text x="180" y="58" font-family="Arial,Helvetica,sans-serif" font-weight="700" font-size="38" fill="#eaf0fb">Co-funded by the</text>
<text x="180" y="104" font-family="Arial,Helvetica,sans-serif" font-weight="700" font-size="38" fill="#eaf0fb">European Union</text>
</svg>